<svg xmlns="http://www.w3.org/2000/svg" fill="#000" preserveAspectRatio="xMinYMin meet" viewBox="0 0 256 256"><path d="M0 222.991C0 241.223 14.779 256 33.009 256H222.99c18.233 0 33.01-14.779 33.01-33.009V33.014C256 14.778 241.221 0 222.99 0H33.01C14.778 0 0 14.779 0 33.009V222.99z" fill="#563D7C"/><path d="M106.158 113.238V76.985h31.911c3.04 0 5.97.253 8.79.76 2.819.506 5.318 1.41 7.488 2.713 2.17 1.303 3.906 3.112 5.21 5.427 1.301 2.316 1.953 5.283 1.953 8.9 0 6.513-1.954 11.217-5.862 14.111-3.907 2.895-8.9 4.342-14.979 4.342h-34.516zM72.075 50.5v155h75.112c6.947 0 13.713-.868 20.298-2.605 6.585-1.737 12.446-4.414 17.584-8.032 5.133-3.618 9.222-8.286 12.261-14.002 3.04-5.717 4.56-12.483 4.56-20.298 0-9.697-2.353-17.982-7.056-24.856-4.704-6.875-11.832-11.687-21.384-14.437 6.947-3.328 12.194-7.598 15.74-12.808 3.545-5.21 5.318-11.722 5.318-19.538 0-7.236-1.195-13.314-3.583-18.235-2.388-4.924-5.753-8.868-10.095-11.835-4.34-2.967-9.55-5.102-15.63-6.404-6.078-1.302-12.808-1.953-20.189-1.953h-72.94zm34.083 128.515v-42.549h37.121c7.381 0 13.315 1.7 17.802 5.102 4.486 3.4 6.73 9.08 6.73 17.04 0 4.054-.684 7.382-2.06 9.987-1.374 2.605-3.22 4.668-5.535 6.187-2.315 1.52-4.993 2.605-8.032 3.257-3.04.646-6.222.972-9.551.972H106.16z" fill="#FFF"/></svg>