<svg width="24" height="24" viewBox="0 0 24 24" fill="none" xmlns="http://www.w3.org/2000/svg">
  <g clip-path="url(#clip0_16_71)">
    <path d="M12.0301 8.39083e-05C9.17606 -0.0105017 6.41189 0.980812 4.23487 2.79567C2.05785 4.61053 0.610903 7.1298 0.154359 9.90021C-0.302186 12.6706 0.261642 15.5103 1.7444 17.9084C3.22716 20.3064 5.53151 22.1055 8.24287 22.9817C8.84211 23.076 9.03387 22.7107 9.03387 22.3925V20.4007C5.71406 21.1079 5.00696 18.8568 5.00696 18.8568C4.78314 18.1249 4.29793 17.4971 3.64068 17.089C2.55006 16.3583 3.72458 16.3819 3.72458 16.3819C4.10078 16.4297 4.46112 16.5606 4.77865 16.7647C5.09618 16.9688 5.36269 17.2408 5.55826 17.5604C5.89117 18.1425 6.44432 18.5719 7.09742 18.755C7.75052 18.9382 8.45076 18.8604 9.04585 18.5386C9.10045 17.9412 9.36786 17.3819 9.8009 16.9594C7.23614 16.7001 4.38374 15.6865 4.38374 11.1963C4.34908 10.0195 4.77852 8.87503 5.58223 8.00242C5.21734 6.9882 5.26021 5.87522 5.70208 4.89105C5.70208 4.89105 6.70881 4.57285 8.99791 6.0696C10.9605 5.55078 13.0277 5.55078 14.9903 6.0696C17.2794 4.54927 18.2862 4.89105 18.2862 4.89105C18.728 5.87522 18.7709 6.9882 18.406 8.00242C19.2097 8.87503 19.6392 10.0195 19.6045 11.1963C19.6045 15.6983 16.8 16.6883 14.1274 16.9829C14.4153 17.2675 14.6379 17.6092 14.7806 17.9852C14.9232 18.3612 14.9824 18.7629 14.9544 19.1633V22.3925C14.9544 22.7107 15.1461 23.0878 15.7574 22.9817C18.4638 22.107 20.7648 20.3128 22.2479 17.9209C23.731 15.529 24.2991 12.6959 23.8504 9.92937C23.4017 7.16289 21.9656 4.64404 19.7994 2.82446C17.6333 1.00488 14.8789 0.00357881 12.0301 8.39083e-05Z" fill="#67595E" />
  </g>
  <defs>
    <clipPath id="clip0_16_71">
      <rect width="24" height="24" fill="white" />
    </clipPath>
  </defs>
</svg>
