<svg xmlns="http://www.w3.org/2000/svg" fill="#000" preserveAspectRatio="xMidYMid" version="1.1" viewBox="-4 0 264 264"><path d="M255.856 59.62c.095.351.144.713.144 1.077v56.568c0 1.478-.79 2.843-2.073 3.578L206.45 148.18v54.18a4.135 4.135 0 0 1-2.062 3.579l-99.108 57.05c-.227.128-.474.21-.722.3-.093.03-.18.086-.278.112a4.15 4.15 0 0 1-2.114 0c-.114-.03-.217-.093-.325-.134-.227-.083-.464-.155-.68-.278L2.076 205.938A4.128 4.128 0 0 1 0 202.36V32.656c0-.372.052-.733.144-1.083.031-.119.103-.227.145-.346.077-.216.15-.438.263-.639.077-.134.19-.242.283-.366.119-.165.227-.335.366-.48.119-.118.274-.206.408-.309.15-.124.283-.258.453-.356h.005L51.613.551a4.135 4.135 0 0 1 4.125 0l49.546 28.526h.01c.165.104.305.232.454.35.134.104.284.197.402.31.145.15.248.32.37.485.089.124.208.232.28.366.118.206.185.423.268.64.04.118.113.226.144.35.095.35.144.714.145 1.078V138.65l41.286-23.773V60.692c0-.36.052-.727.145-1.072.036-.124.103-.232.144-.35.083-.217.155-.44.268-.64.077-.134.19-.242.28-.366.122-.165.225-.335.37-.48.116-.118.266-.206.4-.31.155-.123.29-.257.454-.355h.005l49.552-28.526a4.13 4.13 0 0 1 4.125 0l49.546 28.526c.175.103.31.232.464.35.128.104.278.197.397.31.144.15.247.32.37.485.094.124.207.232.28.366.118.2.185.423.267.64.049.118.116.226.147.35Zm-8.115 55.258v-47.04l-17.335 9.981-23.954 13.79v47.039l41.297-23.773h-.005Zm-49.542 85.095V152.9l-23.562 13.457-67.281 38.4v47.514l90.843-52.3ZM8.26 39.796v160.177l90.832 52.294v-47.505L51.64 177.906l-.015-.01-.02-.01c-.16-.093-.295-.227-.444-.34-.13-.104-.276-.186-.39-.3l-.01-.015c-.133-.129-.226-.289-.34-.433-.103-.14-.226-.258-.31-.402l-.004-.016c-.093-.154-.15-.34-.217-.515-.067-.155-.154-.3-.196-.464v-.005c-.051-.196-.061-.403-.082-.604-.02-.154-.062-.309-.062-.464V63.568l-23.95-13.795-17.34-9.97v-.006ZM53.68 8.893 12.4 32.656l41.27 23.762L94.947 32.65 53.67 8.893h.01Zm21.468 148.298 23.948-13.786V39.795L81.76 49.779l-23.954 13.79v103.61l17.344-9.987ZM202.324 36.935l-41.276 23.762 41.276 23.763 41.271-23.768-41.27-23.757Zm-4.13 54.676-23.953-13.792-17.334-9.981v47.04l23.948 13.787 17.344 9.986V91.614Zm-94.977 106.006 60.543-34.564 30.264-17.272-41.246-23.747-47.489 27.34-43.282 24.918 41.21 23.325Z" fill="#FF2D20"/></svg>